<mxfile host="app.diagrams.net" agent="Mozilla/5.0 (Windows NT 10.0; Win64; x64; rv:138.0) Gecko/20100101 Firefox/138.0" version="27.0.9">
  <diagram name="Page-1" id="hzkgjSwthpgv03zO-qd5">
    <mxGraphModel dx="724" dy="410" grid="1" gridSize="10" guides="1" tooltips="1" connect="1" arrows="1" fold="1" page="1" pageScale="1" pageWidth="850" pageHeight="1100" math="0" shadow="0">
      <root>
        <mxCell id="0" />
        <mxCell id="1" parent="0" />
        <mxCell id="PCpDQy0jO90nFXrEdRfd-5" value="" style="group;movable=0;resizable=0;rotatable=0;deletable=0;editable=0;locked=1;connectable=0;" vertex="1" connectable="0" parent="1">
          <mxGeometry x="590" y="10" width="140" height="240" as="geometry" />
        </mxCell>
        <mxCell id="PCpDQy0jO90nFXrEdRfd-1" value="" style="rounded=1;whiteSpace=wrap;html=1;rotation=-90;movable=0;resizable=0;rotatable=0;deletable=0;editable=0;locked=1;connectable=0;fillColor=#f5f5f5;gradientColor=#b3b3b3;strokeColor=#666666;" vertex="1" parent="PCpDQy0jO90nFXrEdRfd-5">
          <mxGeometry x="-60" y="60" width="240" height="120" as="geometry" />
        </mxCell>
        <mxCell id="PCpDQy0jO90nFXrEdRfd-2" value="" style="ellipse;whiteSpace=wrap;html=1;aspect=fixed;movable=0;resizable=0;rotatable=0;deletable=0;editable=0;locked=1;connectable=0;" vertex="1" parent="PCpDQy0jO90nFXrEdRfd-5">
          <mxGeometry x="49.999999999999986" y="219.99999999999997" width="19.999999999999996" height="19.999999999999996" as="geometry" />
        </mxCell>
        <mxCell id="PCpDQy0jO90nFXrEdRfd-4" value="" style="rounded=0;whiteSpace=wrap;html=1;rotation=90;movable=0;resizable=0;rotatable=0;deletable=0;editable=0;locked=1;connectable=0;" vertex="1" parent="PCpDQy0jO90nFXrEdRfd-5">
          <mxGeometry x="-39.99999999999999" y="60" width="199.99999999999994" height="99.99999999999997" as="geometry" />
        </mxCell>
        <mxCell id="PCpDQy0jO90nFXrEdRfd-6" value="" style="rounded=0;whiteSpace=wrap;html=1;movable=0;resizable=0;rotatable=0;deletable=0;editable=0;locked=1;connectable=0;fillColor=#dae8fc;gradientColor=#7ea6e0;strokeColor=#6c8ebf;" vertex="1" parent="PCpDQy0jO90nFXrEdRfd-5">
          <mxGeometry x="9.999999999999998" y="189.99999999999997" width="99.99999999999997" height="19.999999999999996" as="geometry" />
        </mxCell>
        <mxCell id="PCpDQy0jO90nFXrEdRfd-7" value="" style="rounded=0;whiteSpace=wrap;html=1;movable=0;resizable=0;rotatable=0;deletable=0;editable=0;locked=1;connectable=0;fillColor=#dae8fc;gradientColor=#7ea6e0;strokeColor=#6c8ebf;" vertex="1" parent="PCpDQy0jO90nFXrEdRfd-5">
          <mxGeometry x="9.999999999999998" y="189.99999999999997" width="19.999999999999996" height="19.999999999999996" as="geometry" />
        </mxCell>
        <mxCell id="PCpDQy0jO90nFXrEdRfd-8" value="" style="rounded=0;whiteSpace=wrap;html=1;movable=0;resizable=0;rotatable=0;deletable=0;editable=0;locked=1;connectable=0;fillColor=#dae8fc;gradientColor=#7ea6e0;strokeColor=#6c8ebf;" vertex="1" parent="PCpDQy0jO90nFXrEdRfd-5">
          <mxGeometry x="30" y="189.99999999999997" width="19.999999999999996" height="19.999999999999996" as="geometry" />
        </mxCell>
        <mxCell id="PCpDQy0jO90nFXrEdRfd-10" value="" style="rounded=0;whiteSpace=wrap;html=1;movable=0;resizable=0;rotatable=0;deletable=0;editable=0;locked=1;connectable=0;fillColor=#dae8fc;gradientColor=#7ea6e0;strokeColor=#6c8ebf;" vertex="1" parent="PCpDQy0jO90nFXrEdRfd-5">
          <mxGeometry x="49.999999999999986" y="189.99999999999997" width="19.999999999999996" height="19.999999999999996" as="geometry" />
        </mxCell>
        <mxCell id="PCpDQy0jO90nFXrEdRfd-12" value="" style="rounded=0;whiteSpace=wrap;html=1;movable=0;resizable=0;rotatable=0;deletable=0;editable=0;locked=1;connectable=0;fillColor=#dae8fc;gradientColor=#7ea6e0;strokeColor=#6c8ebf;" vertex="1" parent="PCpDQy0jO90nFXrEdRfd-5">
          <mxGeometry x="69.99999999999999" y="189.99999999999997" width="19.999999999999996" height="19.999999999999996" as="geometry" />
        </mxCell>
        <mxCell id="PCpDQy0jO90nFXrEdRfd-13" value="Stats" style="text;html=1;align=center;verticalAlign=middle;whiteSpace=wrap;rounded=0;fontSize=8;movable=0;resizable=0;rotatable=0;deletable=0;editable=0;locked=1;connectable=0;" vertex="1" parent="PCpDQy0jO90nFXrEdRfd-5">
          <mxGeometry x="70" y="195" width="20" height="10" as="geometry" />
        </mxCell>
        <mxCell id="PCpDQy0jO90nFXrEdRfd-14" value="Play" style="text;html=1;align=center;verticalAlign=middle;whiteSpace=wrap;rounded=0;fontSize=8;movable=0;resizable=0;rotatable=0;deletable=0;editable=0;locked=1;connectable=0;" vertex="1" parent="PCpDQy0jO90nFXrEdRfd-5">
          <mxGeometry x="50" y="195" width="20" height="10" as="geometry" />
        </mxCell>
        <mxCell id="PCpDQy0jO90nFXrEdRfd-15" value="Sett" style="text;html=1;align=center;verticalAlign=middle;whiteSpace=wrap;rounded=0;fontSize=8;movable=0;resizable=0;rotatable=0;deletable=0;editable=0;locked=1;connectable=0;" vertex="1" parent="PCpDQy0jO90nFXrEdRfd-5">
          <mxGeometry x="90" y="195" width="20" height="10" as="geometry" />
        </mxCell>
        <mxCell id="PCpDQy0jO90nFXrEdRfd-16" value="Frie" style="text;html=1;align=center;verticalAlign=middle;whiteSpace=wrap;rounded=0;fontSize=8;movable=0;resizable=0;rotatable=0;deletable=0;editable=0;locked=1;connectable=0;" vertex="1" parent="PCpDQy0jO90nFXrEdRfd-5">
          <mxGeometry x="30" y="195" width="20" height="10" as="geometry" />
        </mxCell>
        <mxCell id="PCpDQy0jO90nFXrEdRfd-17" value="New" style="text;html=1;align=center;verticalAlign=middle;whiteSpace=wrap;rounded=0;fontSize=8;movable=0;resizable=0;rotatable=0;deletable=0;editable=0;locked=1;connectable=0;" vertex="1" parent="PCpDQy0jO90nFXrEdRfd-5">
          <mxGeometry x="10" y="195" width="20" height="10" as="geometry" />
        </mxCell>
        <mxCell id="PCpDQy0jO90nFXrEdRfd-48" value="You" style="whiteSpace=wrap;html=1;aspect=fixed;movable=0;resizable=0;rotatable=0;deletable=0;editable=0;locked=1;connectable=0;" vertex="1" parent="PCpDQy0jO90nFXrEdRfd-5">
          <mxGeometry x="20" y="70" width="80" height="80" as="geometry" />
        </mxCell>
        <mxCell id="PCpDQy0jO90nFXrEdRfd-49" value="Opp" style="rounded=1;whiteSpace=wrap;html=1;movable=0;resizable=0;rotatable=0;deletable=0;editable=0;locked=1;connectable=0;" vertex="1" parent="PCpDQy0jO90nFXrEdRfd-5">
          <mxGeometry x="20" y="20" width="80" height="20" as="geometry" />
        </mxCell>
        <mxCell id="PCpDQy0jO90nFXrEdRfd-50" value="b1" style="whiteSpace=wrap;html=1;aspect=fixed;movable=0;resizable=0;rotatable=0;deletable=0;editable=0;locked=1;connectable=0;" vertex="1" parent="PCpDQy0jO90nFXrEdRfd-5">
          <mxGeometry x="20" y="160" width="20" height="20" as="geometry" />
        </mxCell>
        <mxCell id="PCpDQy0jO90nFXrEdRfd-51" value="b2" style="whiteSpace=wrap;html=1;aspect=fixed;movable=0;resizable=0;rotatable=0;deletable=0;editable=0;locked=1;connectable=0;" vertex="1" parent="PCpDQy0jO90nFXrEdRfd-5">
          <mxGeometry x="40" y="160" width="20" height="20" as="geometry" />
        </mxCell>
        <mxCell id="PCpDQy0jO90nFXrEdRfd-52" value="b3" style="whiteSpace=wrap;html=1;aspect=fixed;movable=0;resizable=0;rotatable=0;deletable=0;editable=0;locked=1;connectable=0;" vertex="1" parent="PCpDQy0jO90nFXrEdRfd-5">
          <mxGeometry x="60" y="160" width="20" height="20" as="geometry" />
        </mxCell>
        <mxCell id="PCpDQy0jO90nFXrEdRfd-53" value="b4" style="whiteSpace=wrap;html=1;aspect=fixed;movable=0;resizable=0;rotatable=0;deletable=0;editable=0;locked=1;connectable=0;" vertex="1" parent="PCpDQy0jO90nFXrEdRfd-5">
          <mxGeometry x="80" y="160" width="20" height="20" as="geometry" />
        </mxCell>
        <mxCell id="PCpDQy0jO90nFXrEdRfd-20" value="" style="group;movable=0;resizable=0;rotatable=0;deletable=0;editable=0;locked=1;connectable=0;" vertex="1" connectable="0" parent="1">
          <mxGeometry x="720" y="10" width="120" height="240" as="geometry" />
        </mxCell>
        <mxCell id="PCpDQy0jO90nFXrEdRfd-21" value="" style="rounded=1;whiteSpace=wrap;html=1;rotation=-90;movable=0;resizable=0;rotatable=0;deletable=0;editable=0;locked=1;connectable=0;fillColor=#f5f5f5;gradientColor=#b3b3b3;strokeColor=#666666;" vertex="1" parent="PCpDQy0jO90nFXrEdRfd-20">
          <mxGeometry x="-60" y="60" width="240" height="120" as="geometry" />
        </mxCell>
        <mxCell id="PCpDQy0jO90nFXrEdRfd-22" value="" style="ellipse;whiteSpace=wrap;html=1;aspect=fixed;movable=0;resizable=0;rotatable=0;deletable=0;editable=0;locked=1;connectable=0;" vertex="1" parent="PCpDQy0jO90nFXrEdRfd-20">
          <mxGeometry x="49.999999999999986" y="219.99999999999997" width="19.999999999999996" height="19.999999999999996" as="geometry" />
        </mxCell>
        <mxCell id="PCpDQy0jO90nFXrEdRfd-23" value="" style="rounded=0;whiteSpace=wrap;html=1;rotation=90;movable=0;resizable=0;rotatable=0;deletable=0;editable=0;locked=1;connectable=0;" vertex="1" parent="PCpDQy0jO90nFXrEdRfd-20">
          <mxGeometry x="-39.99999999999999" y="60" width="199.99999999999994" height="99.99999999999997" as="geometry" />
        </mxCell>
        <mxCell id="PCpDQy0jO90nFXrEdRfd-24" value="" style="rounded=0;whiteSpace=wrap;html=1;movable=0;resizable=0;rotatable=0;deletable=0;editable=0;locked=1;connectable=0;fillColor=#dae8fc;gradientColor=#7ea6e0;strokeColor=#6c8ebf;" vertex="1" parent="PCpDQy0jO90nFXrEdRfd-20">
          <mxGeometry x="9.999999999999998" y="189.99999999999997" width="99.99999999999997" height="19.999999999999996" as="geometry" />
        </mxCell>
        <mxCell id="PCpDQy0jO90nFXrEdRfd-25" value="" style="rounded=0;whiteSpace=wrap;html=1;movable=0;resizable=0;rotatable=0;deletable=0;editable=0;locked=1;connectable=0;fillColor=#dae8fc;gradientColor=#7ea6e0;strokeColor=#6c8ebf;" vertex="1" parent="PCpDQy0jO90nFXrEdRfd-20">
          <mxGeometry x="9.999999999999998" y="189.99999999999997" width="19.999999999999996" height="19.999999999999996" as="geometry" />
        </mxCell>
        <mxCell id="PCpDQy0jO90nFXrEdRfd-26" value="" style="rounded=0;whiteSpace=wrap;html=1;movable=0;resizable=0;rotatable=0;deletable=0;editable=0;locked=1;connectable=0;fillColor=#dae8fc;gradientColor=#7ea6e0;strokeColor=#6c8ebf;" vertex="1" parent="PCpDQy0jO90nFXrEdRfd-20">
          <mxGeometry x="30" y="189.99999999999997" width="19.999999999999996" height="19.999999999999996" as="geometry" />
        </mxCell>
        <mxCell id="PCpDQy0jO90nFXrEdRfd-27" value="" style="rounded=0;whiteSpace=wrap;html=1;movable=0;resizable=0;rotatable=0;deletable=0;editable=0;locked=1;connectable=0;fillColor=#dae8fc;gradientColor=#7ea6e0;strokeColor=#6c8ebf;" vertex="1" parent="PCpDQy0jO90nFXrEdRfd-20">
          <mxGeometry x="49.999999999999986" y="189.99999999999997" width="19.999999999999996" height="19.999999999999996" as="geometry" />
        </mxCell>
        <mxCell id="PCpDQy0jO90nFXrEdRfd-28" value="" style="rounded=0;whiteSpace=wrap;html=1;movable=0;resizable=0;rotatable=0;deletable=0;editable=0;locked=1;connectable=0;fillColor=#dae8fc;gradientColor=#7ea6e0;strokeColor=#6c8ebf;" vertex="1" parent="PCpDQy0jO90nFXrEdRfd-20">
          <mxGeometry x="69.99999999999999" y="189.99999999999997" width="19.999999999999996" height="19.999999999999996" as="geometry" />
        </mxCell>
        <mxCell id="PCpDQy0jO90nFXrEdRfd-29" value="Stats" style="text;html=1;align=center;verticalAlign=middle;whiteSpace=wrap;rounded=0;fontSize=8;movable=0;resizable=0;rotatable=0;deletable=0;editable=0;locked=1;connectable=0;" vertex="1" parent="PCpDQy0jO90nFXrEdRfd-20">
          <mxGeometry x="70" y="195" width="20" height="10" as="geometry" />
        </mxCell>
        <mxCell id="PCpDQy0jO90nFXrEdRfd-30" value="Play" style="text;html=1;align=center;verticalAlign=middle;whiteSpace=wrap;rounded=0;fontSize=8;movable=0;resizable=0;rotatable=0;deletable=0;editable=0;locked=1;connectable=0;" vertex="1" parent="PCpDQy0jO90nFXrEdRfd-20">
          <mxGeometry x="50" y="195" width="20" height="10" as="geometry" />
        </mxCell>
        <mxCell id="PCpDQy0jO90nFXrEdRfd-31" value="Sett" style="text;html=1;align=center;verticalAlign=middle;whiteSpace=wrap;rounded=0;fontSize=8;movable=0;resizable=0;rotatable=0;deletable=0;editable=0;locked=1;connectable=0;" vertex="1" parent="PCpDQy0jO90nFXrEdRfd-20">
          <mxGeometry x="90" y="195" width="20" height="10" as="geometry" />
        </mxCell>
        <mxCell id="PCpDQy0jO90nFXrEdRfd-32" value="Frie" style="text;html=1;align=center;verticalAlign=middle;whiteSpace=wrap;rounded=0;fontSize=8;movable=0;resizable=0;rotatable=0;deletable=0;editable=0;locked=1;connectable=0;" vertex="1" parent="PCpDQy0jO90nFXrEdRfd-20">
          <mxGeometry x="30" y="195" width="20" height="10" as="geometry" />
        </mxCell>
        <mxCell id="PCpDQy0jO90nFXrEdRfd-33" value="New" style="text;html=1;align=center;verticalAlign=middle;whiteSpace=wrap;rounded=0;fontSize=8;movable=0;resizable=0;rotatable=0;deletable=0;editable=0;locked=1;connectable=0;" vertex="1" parent="PCpDQy0jO90nFXrEdRfd-20">
          <mxGeometry x="10" y="195" width="20" height="10" as="geometry" />
        </mxCell>
        <mxCell id="PCpDQy0jO90nFXrEdRfd-55" value="You" style="whiteSpace=wrap;html=1;aspect=fixed;movable=0;resizable=0;rotatable=0;deletable=0;editable=0;locked=1;connectable=0;" vertex="1" parent="PCpDQy0jO90nFXrEdRfd-20">
          <mxGeometry x="70" y="145" width="35" height="35" as="geometry" />
        </mxCell>
        <mxCell id="PCpDQy0jO90nFXrEdRfd-56" value="Fire" style="rounded=1;whiteSpace=wrap;html=1;movable=0;resizable=0;rotatable=0;deletable=0;editable=0;locked=1;connectable=0;fillColor=#f8cecc;gradientColor=#ea6b66;strokeColor=#b85450;" vertex="1" parent="PCpDQy0jO90nFXrEdRfd-20">
          <mxGeometry x="20" y="150" width="40" height="22.5" as="geometry" />
        </mxCell>
        <mxCell id="PCpDQy0jO90nFXrEdRfd-58" value="Them" style="whiteSpace=wrap;html=1;aspect=fixed;movable=0;resizable=0;rotatable=0;deletable=0;editable=0;locked=1;connectable=0;" vertex="1" parent="PCpDQy0jO90nFXrEdRfd-20">
          <mxGeometry x="15" y="50" width="90" height="90" as="geometry" />
        </mxCell>
        <mxCell id="PCpDQy0jO90nFXrEdRfd-59" value="Opp" style="rounded=1;whiteSpace=wrap;html=1;movable=0;resizable=0;rotatable=0;deletable=0;editable=0;locked=1;connectable=0;" vertex="1" parent="PCpDQy0jO90nFXrEdRfd-20">
          <mxGeometry x="20" y="20" width="80" height="20" as="geometry" />
        </mxCell>
        <mxCell id="PCpDQy0jO90nFXrEdRfd-61" value="" style="endArrow=none;html=1;rounded=0;exitX=0;exitY=0.25;exitDx=0;exitDy=0;entryX=1;entryY=0.25;entryDx=0;entryDy=0;movable=0;resizable=0;rotatable=0;deletable=0;editable=0;locked=1;connectable=0;" edge="1" parent="PCpDQy0jO90nFXrEdRfd-20" source="PCpDQy0jO90nFXrEdRfd-58" target="PCpDQy0jO90nFXrEdRfd-58">
          <mxGeometry width="50" height="50" relative="1" as="geometry">
            <mxPoint x="100" y="180" as="sourcePoint" />
            <mxPoint x="150" y="130" as="targetPoint" />
          </mxGeometry>
        </mxCell>
        <mxCell id="PCpDQy0jO90nFXrEdRfd-60" value="" style="endArrow=none;html=1;rounded=0;entryX=0.75;entryY=0;entryDx=0;entryDy=0;exitX=0.75;exitY=1;exitDx=0;exitDy=0;movable=0;resizable=0;rotatable=0;deletable=0;editable=0;locked=1;connectable=0;" edge="1" parent="PCpDQy0jO90nFXrEdRfd-20">
          <mxGeometry width="50" height="50" relative="1" as="geometry">
            <mxPoint x="-127.5" y="120" as="sourcePoint" />
            <mxPoint x="-127.5" y="30" as="targetPoint" />
          </mxGeometry>
        </mxCell>
        <mxCell id="PCpDQy0jO90nFXrEdRfd-64" value="" style="endArrow=none;html=1;rounded=0;entryX=0.75;entryY=0;entryDx=0;entryDy=0;exitX=0.75;exitY=1;exitDx=0;exitDy=0;movable=0;resizable=0;rotatable=0;deletable=0;editable=0;locked=1;connectable=0;" edge="1" parent="PCpDQy0jO90nFXrEdRfd-20" source="PCpDQy0jO90nFXrEdRfd-58" target="PCpDQy0jO90nFXrEdRfd-58">
          <mxGeometry width="50" height="50" relative="1" as="geometry">
            <mxPoint x="80" y="140" as="sourcePoint" />
            <mxPoint x="130" y="90" as="targetPoint" />
          </mxGeometry>
        </mxCell>
        <mxCell id="PCpDQy0jO90nFXrEdRfd-62" value="" style="ellipse;whiteSpace=wrap;html=1;aspect=fixed;movable=0;resizable=0;rotatable=0;deletable=0;editable=0;locked=1;connectable=0;" vertex="1" parent="PCpDQy0jO90nFXrEdRfd-20">
          <mxGeometry x="81" y="71" width="3" height="3" as="geometry" />
        </mxCell>
      </root>
    </mxGraphModel>
  </diagram>
</mxfile>
